<svg width="32" height="32" viewBox="0 0 32 32" fill="none" xmlns="http://www.w3.org/2000/svg">
<rect width="32" height="32" rx="8" fill="#E1F6FF"/>
<g clip-path="url(#clip0_7020_12952)">
<path d="M21.49 11.04H19.71V10.52C19.71 9.13 18.59 8 17.2 8H14.76C13.37 8 12.24 9.13 12.24 10.52V11.04H10.52C9.13 11.04 8 12.17 8 13.56V20.91C8 22.3 9.13 23.43 10.52 23.43H21.49C22.88 23.43 24 22.3 24 20.91V13.56C24 12.17 22.88 11.04 21.49 11.04ZM13.61 10.52C13.61 9.89 14.13 9.37 14.76 9.37H17.2C17.83 9.37 18.34 9.89 18.34 10.52V11.04H13.61V10.52ZM22.63 20.91C22.63 21.54 22.12 22.06 21.49 22.06H10.52C9.89 22.06 9.38 21.54 9.38 20.91V13.56C9.38 12.93 9.89 12.41 10.52 12.41H21.49C22.12 12.41 22.63 12.93 22.63 13.56V20.91Z" fill="#202020"/>
</g>
<defs>
<clipPath id="clip0_7020_12952">
<rect width="16" height="16" fill="white" transform="translate(8 8)"/>
</clipPath>
</defs>
</svg>
