<svg width="32" height="32" viewBox="0 0 32 32" fill="none" xmlns="http://www.w3.org/2000/svg">
<rect width="32" height="32" rx="8" fill="#E1F6FF"/>
<g clip-path="url(#clip0_4831_54501)">
<path d="M19.4907 23.7183C19.3607 23.7183 19.2207 23.7183 19.0707 23.7083C13.0507 23.4483 9.12066 16.1283 8.96066 15.8083C8.06066 14.2283 7.06066 10.7383 9.69066 8.87826C9.87066 8.69826 10.4407 8.21826 11.3207 8.04826C12.4407 7.81826 13.5807 8.42826 14.0407 9.49826L14.9507 11.5683C15.3607 12.5083 15.1207 13.5883 14.3407 14.2583C13.9607 14.5883 13.9007 15.1683 14.2207 15.5683C14.6007 16.0583 14.9507 16.4483 15.2607 16.7283C15.6707 17.0983 16.1707 17.5083 16.6107 17.8583C17.0407 18.1983 17.6507 18.1783 18.0607 17.7983C18.7607 17.1483 19.7407 16.9783 20.5807 17.3383L22.2907 18.2683C22.9707 18.5583 23.5707 19.1583 23.8407 19.8483C24.0507 20.3983 24.0407 20.9683 23.8007 21.4883C23.3407 22.5283 22.2107 23.7183 19.4907 23.7183ZM11.7907 9.36826C11.7307 9.36826 11.6607 9.37826 11.6007 9.38826C11.0007 9.50826 10.6307 9.87826 10.6207 9.88826L10.5207 9.97826C8.19066 11.5783 10.0807 15.0183 10.1707 15.1583C10.2207 15.2483 13.9107 22.1183 19.1407 22.3383C20.9607 22.4183 22.1107 21.9383 22.5807 20.9283C22.6607 20.7483 22.6607 20.5583 22.5807 20.3583C22.4507 20.0183 22.1107 19.6883 21.7107 19.5183L20.0007 18.5883C19.7107 18.4683 19.3107 18.5383 19.0407 18.7883C18.1107 19.6583 16.7507 19.7083 15.7807 18.9483C15.3107 18.5783 14.7907 18.1483 14.3607 17.7583C13.9707 17.4183 13.5607 16.9583 13.1307 16.4083C12.3707 15.4283 12.5107 14.0283 13.4407 13.2183C13.7607 12.9483 13.8607 12.4983 13.6907 12.1183L12.7907 10.0483C12.6007 9.62826 12.2007 9.36826 11.7907 9.36826Z" fill="#202020"/>
</g>
<defs>
<clipPath id="clip0_4831_54501">
<rect width="16" height="16" fill="white" transform="translate(8 8)"/>
</clipPath>
</defs>
</svg>
