<svg width="32" height="32" viewBox="0 0 32 32" fill="none" xmlns="http://www.w3.org/2000/svg">
<rect width="32" height="32" rx="8" fill="#E1F6FF"/>
<path d="M21.53 9H10.47C9.11 9 8 10.11 8 11.47V20.1C8 21.46 9.11 22.57 10.47 22.57H21.53C22.89 22.57 24 21.46 24 20.1V11.47C24 10.11 22.89 9 21.53 9ZM9.37 11.47C9.37 10.86 9.86 10.37 10.47 10.37H21.53C22.13 10.37 22.63 10.85 22.63 11.47V11.79L16.53 14.76C16.2 14.92 15.8 14.92 15.47 14.76L9.37 11.79V11.47ZM22.63 20.1C22.63 20.71 22.14 21.2 21.53 21.2H10.47C9.87 21.2 9.37 20.72 9.37 20.1V13.32L14.86 15.99C15.22 16.17 15.61 16.25 16 16.25C16.38 16.25 16.78 16.17 17.13 15.99L22.62 13.32V20.1H22.63Z" fill="#202020"/>
</svg>
