<svg width="32" height="32" viewBox="0 0 32 32" fill="none" xmlns="http://www.w3.org/2000/svg">
<rect width="32" height="32" rx="8" fill="#E1F6FF"/>
<path d="M21.49 9H10.51C9.13 9 8 10.12 8 11.51V18.49C8 19.88 9.13 21 10.51 21H15.31V22.54H13.18C12.81 22.54 12.49 22.85 12.49 23.23C12.49 23.6 12.8 23.92 13.18 23.92H18.81C19.19 23.92 19.5 23.61 19.5 23.23C19.5 22.86 19.2 22.54 18.81 22.54H16.69V21H21.49C22.88 21 24 19.88 24 18.49V11.51C24 10.12 22.88 9 21.49 9ZM22.63 18.49C22.63 19.12 22.12 19.63 21.49 19.63H10.51C9.88 19.63 9.37 19.12 9.37 18.49V11.51C9.37 10.88 9.88 10.37 10.51 10.37H21.48C22.11 10.37 22.62 10.88 22.62 11.51V18.49H22.63Z" fill="#202020"/>
</svg>
