<svg width="32" height="32" viewBox="0 0 32 32" fill="none" xmlns="http://www.w3.org/2000/svg">
<rect width="32" height="32" rx="8" fill="#E1F6FF"/>
<path d="M18.64 8H13.51C12.13 8 11 9.13 11 10.51V21.48C11 22.88 12.13 24 13.51 24H18.64C20.03 24 21.15 22.88 21.15 21.49V10.51C21.16 9.13 20.03 8 18.64 8ZM19.79 21.49C19.79 22.12 19.28 22.63 18.65 22.63H13.51C12.88 22.63 12.37 22.12 12.37 21.49V10.51C12.37 9.88 12.88 9.37 13.51 9.37H14.2C14.15 9.47 14.11 9.58 14.11 9.71C14.11 10.08 14.42 10.4 14.8 10.4H17.37C17.75 10.4 18.06 10.09 18.06 9.71C18.06 9.58 18.02 9.47 17.97 9.37H18.66C19.29 9.37 19.8 9.88 19.8 10.51V21.49H19.79Z" fill="#202020"/>
</svg>
