<svg width="28" height="28" viewBox="0 0 28 28" fill="none" xmlns="http://www.w3.org/2000/svg">
<rect width="28" height="28" rx="14" fill="white"/>
<path d="M18.13 22H10.72C9.22 22 8 20.78 8 19.28V8.72C8 7.22 9.22 6 10.72 6H18.13C19.63 6 20.85 7.22 20.85 8.72V19.28C20.85 20.78 19.63 22 18.13 22ZM10.72 7.37C9.98 7.37 9.37 7.97 9.37 8.72V19.28C9.37 20.02 9.97 20.63 10.72 20.63H18.13C18.87 20.63 19.48 20.03 19.48 19.28V8.72C19.48 7.98 18.88 7.37 18.13 7.37H10.72Z" fill="#004C6F"/>
<path d="M17.1501 11.92H11.5501C11.1701 11.92 10.8601 11.61 10.8601 11.23C10.8601 10.85 11.1701 10.54 11.5501 10.54H17.1501C17.5301 10.54 17.8401 10.85 17.8401 11.23C17.8401 11.61 17.5301 11.92 17.1501 11.92Z" fill="#004C6F"/>
<path d="M17.2199 14.6901H11.6199C11.2499 14.6901 10.9399 14.3801 10.9399 14.0001C10.9399 13.6201 11.2499 13.3101 11.6299 13.3101H17.2299C17.5999 13.3101 17.9099 13.6201 17.9099 14.0001C17.9099 14.3801 17.5999 14.6901 17.2199 14.6901Z" fill="#004C6F"/>
</svg>
