<svg width="256" height="32" viewBox="0 0 256 32" fill="none" xmlns="http://www.w3.org/2000/svg">
<g clip-path="url(#clip0_4969_376)">
<path fill-rule="evenodd" clip-rule="evenodd" d="M210.002 14.4201H202.68C203.152 11.8108 204.737 10.4045 206.764 10.4045C209.126 10.4045 210.002 12.1458 210.002 14.4201ZM214.694 15.0556C214.694 10.2378 211.827 6.85764 206.629 6.85764C201.599 6.85764 197.55 10.4045 197.55 16.1597C197.55 22.1823 201.329 25.6944 206.662 25.6944C209.363 25.6944 211.893 24.8924 214.121 23.3524L212.061 20.2413C210.543 21.1788 208.855 21.7812 207.033 21.7812C204.299 21.7812 202.848 20.2743 202.578 17.2309H214.525C214.627 16.6944 214.694 15.7587 214.694 15.0556ZM197.212 9.10069C195.222 7.56076 192.995 6.89236 190.8 6.89236C185.503 6.89236 181.585 10.4045 181.585 16.1597C181.585 22.1493 185.534 25.6615 190.8 25.6615C193.366 25.6615 195.459 24.8247 197.448 23.0851L194.75 20.2413C193.634 21.1441 192.555 21.7135 190.935 21.7135C188.506 21.7135 186.581 19.7396 186.581 16.1597C186.581 12.7465 188.538 10.875 190.935 10.875C192.455 10.875 193.669 11.4757 194.716 12.2795L197.212 9.10069ZM167.771 7.2934H163.112V25.2604H168.04V12.6476C169.121 11.309 170.436 10.5382 171.956 10.5382C173.643 10.5382 174.319 11.6424 174.319 13.2483V25.2604H179.28V13.3819C179.28 9.33507 177.559 6.85764 173.508 6.85764C171.247 6.85764 169.324 7.99653 168.007 9.36806L167.771 7.2934ZM155.886 14.4201H148.564C149.037 11.8108 150.622 10.4045 152.648 10.4045C155.01 10.4045 155.886 12.1458 155.886 14.4201ZM160.578 15.0556C160.578 10.2378 157.711 6.85764 152.513 6.85764C147.483 6.85764 143.434 10.4045 143.434 16.1597C143.434 22.1823 147.214 25.6944 152.546 25.6944C155.247 25.6944 157.778 24.8924 160.005 23.3524L157.946 20.2413C156.427 21.1788 154.741 21.7812 152.918 21.7812C150.184 21.7812 148.732 20.2743 148.462 17.2309H160.41C160.511 16.6944 160.578 15.7587 160.578 15.0556ZM136.026 12.5139V20.1424C134.914 21.3785 133.765 21.9132 132.28 21.9132C129.884 21.9132 128.737 19.6059 128.737 16.092C128.737 12.5469 129.884 10.6406 132.28 10.6406C133.732 10.6406 134.947 11.309 136.026 12.5139ZM130.828 6.89236C126.609 6.89236 123.774 10.0035 123.774 16.059C123.774 22.3819 126.644 25.6615 130.729 25.6615C133.124 25.6615 134.879 24.625 136.296 23.1528L136.601 25.2604H140.988V0H136.026V9.30035C134.678 7.82812 132.821 6.89236 130.828 6.89236ZM109.825 7.2934H105.166V25.2604H110.095V12.6476C111.173 11.309 112.49 10.5382 114.009 10.5382C115.697 10.5382 116.371 11.6424 116.371 13.2483V25.2604H121.333V13.3819C121.333 9.33507 119.611 6.85764 115.562 6.85764C113.301 6.85764 111.377 7.99653 110.06 9.36806L109.825 7.2934ZM97.9405 14.4201H90.6182C91.0911 11.8108 92.676 10.4045 94.7023 10.4045C97.0648 10.4045 97.9405 12.1458 97.9405 14.4201ZM102.632 15.0556C102.632 10.2378 99.7636 6.85764 94.5674 6.85764C89.5377 6.85764 85.4886 10.4045 85.4886 16.1597C85.4886 22.1823 89.268 25.6944 94.6007 25.6944C97.2995 25.6944 99.8319 24.8924 102.06 23.3524L100 20.2413C98.4816 21.1788 96.7951 21.7812 94.972 21.7812C92.2382 21.7812 90.7863 20.2743 90.5166 17.2309H102.464C102.566 16.6944 102.632 15.7587 102.632 15.0556ZM78.8827 16.092C78.8827 19.6059 77.7023 21.9132 75.3065 21.9132C73.8214 21.9132 72.7075 21.3785 71.5604 20.1424V12.5139C72.6392 11.309 73.8546 10.6406 75.3065 10.6406C77.7023 10.6406 78.8827 12.5469 78.8827 16.092ZM66.6655 31.9514H71.5604V23.3524C72.9107 24.691 74.6322 25.6615 76.8932 25.6615C80.9422 25.6615 83.8109 22.3819 83.8109 16.059C83.8109 10.0035 80.9755 6.89236 76.7916 6.89236C74.6988 6.89236 72.8757 7.89583 71.4921 9.46701L71.1208 7.2934H66.6655V31.9514ZM59.4238 14.4201H52.0998C52.5727 11.8108 54.1594 10.4045 56.1839 10.4045C58.5464 10.4045 59.4238 12.1458 59.4238 14.4201ZM64.1156 15.0556C64.1156 10.2378 61.2469 6.85764 56.049 6.85764C51.021 6.85764 46.9702 10.4045 46.9702 16.1597C46.9702 22.1823 50.7496 25.6944 56.0841 25.6944C58.7828 25.6944 61.3135 24.8924 63.5429 23.3524L61.4834 20.2413C59.965 21.1788 58.2767 21.7812 56.4536 21.7812C53.7198 21.7812 52.2697 20.2743 51.9982 17.2309H63.9475C64.0473 16.6944 64.1156 15.7587 64.1156 15.0556ZM39.5639 12.5139V20.1424C38.4501 21.3785 37.303 21.9132 35.8179 21.9132C33.4203 21.9132 32.2732 19.6059 32.2732 16.092C32.2732 12.5469 33.4203 10.6406 35.8179 10.6406C37.268 10.6406 38.4834 11.309 39.5639 12.5139ZM34.366 6.89236C30.1471 6.89236 27.3117 10.0035 27.3117 16.059C27.3117 22.3819 30.1804 25.6615 34.2644 25.6615C36.662 25.6615 38.4151 24.625 39.8336 23.1528L40.1366 25.2604H44.5236V0H39.5639V9.30035C38.2137 7.82812 36.3573 6.89236 34.366 6.89236ZM13.3608 7.2934H8.70403V25.2604H13.6305V12.6476C14.711 11.309 16.028 10.5382 17.5464 10.5382C19.2347 10.5382 19.9089 11.6424 19.9089 13.2483V25.2604H24.8704V13.3819C24.8704 9.33507 23.1489 6.85764 19.0981 6.85764C16.8371 6.85764 14.9142 7.99653 13.5972 9.36806L13.3608 7.2934ZM5.13135 1.84028H0V25.2604H5.13135V1.84028ZM246.767 23.0538V31.9219H232.511V23.0538H223.567V8.87153H232.511V0.00347222H246.767V8.87153H255.715V23.0538H246.767ZM251.152 30.4878H250.858V29.9826H251.194C251.364 29.9826 251.546 30.0208 251.546 30.2222C251.546 30.4722 251.361 30.4878 251.152 30.4878ZM250.858 31.4028V30.6979H251.142L251.569 31.4028H251.844L251.384 30.6858C251.622 30.6562 251.804 30.5278 251.804 30.2361C251.804 29.9167 251.615 29.7726 251.231 29.7726H250.613V31.4028H250.858ZM251.158 31.7656C250.513 31.7656 250.012 31.2639 250.012 30.5851C250.012 29.9167 250.513 29.4115 251.158 29.4115C251.793 29.4115 252.296 29.9167 252.296 30.5851C252.296 31.2639 251.793 31.7656 251.158 31.7656ZM249.729 30.5851C249.729 31.4028 250.384 32 251.158 32C251.923 32 252.578 31.4028 252.578 30.5851C252.578 29.7726 251.923 29.1753 251.158 29.1753C250.384 29.1753 249.729 29.7726 249.729 30.5851ZM237.89 10.901C237.466 10.4444 237.103 9.47917 237.55 8.73958C236.103 9.15278 234.834 9.9809 233.883 11.0851L237.858 11.0833C237.93 11.0625 237.968 10.9792 237.89 10.901ZM231.657 12.2812C233.063 9.29514 236.121 7.22743 239.665 7.22743C243.208 7.22743 246.266 9.29514 247.676 12.2812H241.385C240.489 12.2622 240.093 11.7413 240.075 11.3194C240.053 10.816 240.131 10.6562 240.55 10.1198C241.007 9.5191 240.692 8.36285 239.664 8.34375C238.639 8.36285 238.324 9.5191 238.781 10.1198C239.198 10.6562 239.277 10.816 239.256 11.3194C239.238 11.7413 238.842 12.2622 237.946 12.2812H231.657ZM241.473 11.0833L245.448 11.0851C244.496 9.9809 243.226 9.15278 241.778 8.73958C242.228 9.47917 241.863 10.4444 241.44 10.901C241.361 10.9792 241.401 11.0625 241.473 11.0833ZM239.79 18.3715C239.754 18.3238 239.71 18.2994 239.665 18.3006C239.707 18.3017 239.75 18.3247 239.79 18.3715ZM239.539 18.3715L236.567 22.8802C237.515 23.2986 238.562 23.5313 239.665 23.5313C240.767 23.5313 241.816 23.2986 242.762 22.8802L239.79 18.3715H239.539ZM239.665 18.3006C239.623 18.3017 239.579 18.3247 239.539 18.3715C239.576 18.3238 239.62 18.2994 239.665 18.3006ZM234.809 23.3077C236.202 24.2178 237.872 24.7465 239.665 24.7465C241.46 24.7465 243.13 24.2175 244.522 23.3069L244.525 23.3125L244.524 23.3056C244.523 23.306 244.522 23.3064 244.522 23.3069L240.217 16.9271C239.914 16.5174 239.431 16.4826 239.114 16.9271L234.809 23.3077ZM234.809 23.3077C234.808 23.307 234.807 23.3063 234.806 23.3056V23.3125L234.809 23.3077ZM242.567 14.6024L247.058 14.1927C247.198 14.7691 247.275 15.3698 247.275 15.9878C247.275 17.8646 246.583 19.5816 245.438 20.901L242.294 14.9497C242.221 14.7656 242.243 14.6285 242.567 14.6024ZM247.938 12.8994C247.937 12.8988 247.937 12.8982 247.937 12.8976L247.939 12.8993L247.938 12.8994ZM245.118 22.8812L241.061 15.3316C240.765 14.691 240.895 13.6198 242.007 13.467L247.938 12.8994C248.303 13.859 248.501 14.9017 248.501 15.9878C248.501 18.786 247.179 21.277 245.118 22.8812ZM245.118 22.8812C245.118 22.8814 245.118 22.8817 245.117 22.8819L245.124 22.8924L245.118 22.8812ZM233.891 20.901C232.748 19.5816 232.056 17.8646 232.056 15.9878C232.056 15.3698 232.131 14.7691 232.273 14.1927L236.762 14.6024C237.086 14.6285 237.11 14.7656 237.035 14.9497L233.891 20.901ZM231.393 12.8996L231.391 12.8993L231.394 12.8976C231.394 12.8982 231.394 12.8989 231.393 12.8996ZM237.324 13.467L231.393 12.8996C231.028 13.8591 230.828 14.9018 230.828 15.9878C230.828 18.7865 232.152 21.2778 234.212 22.8819L234.208 22.8924L238.268 15.3316C238.566 14.691 238.434 13.6198 237.324 13.467Z" fill="white"/>
</g>
<defs>
<clipPath id="clip0_4969_376">
<rect width="256" height="32" fill="white"/>
</clipPath>
</defs>
</svg>
