<svg width="75" height="67" viewBox="0 0 75 67" fill="none" xmlns="http://www.w3.org/2000/svg">
<path d="M3.52928 58.8213L34.5028 5.96773C36.0583 3.31326 39.9032 3.33547 41.428 6.00775L71.5864 58.8613C73.108 61.528 71.1824 64.8437 68.1122 64.8437H6.98035C3.88961 64.8437 1.96659 61.4879 3.52928 58.8213Z" stroke="#EEAF07" stroke-width="4"/>
<path d="M38 53C39.1046 53 40 52.3284 40 51.5C40 50.6716 39.1046 50 38 50C36.8954 50 36 50.6716 36 51.5C36 52.3284 36.8954 53 38 53Z" fill="#EEAF07"/>
<path d="M38 47C36.8986 47 36 46.1494 36 45.1067V30.8933C36 29.8506 36.8986 29 38 29C39.1015 29 40 29.8506 40 30.8933V45.1067C40 46.1494 39.1015 47 38 47Z" fill="#EEAF07"/>
</svg>
